<?xml version="1.0" standalone="no"?>
<!DOCTYPE svg PUBLIC "-//W3C//DTD SVG 20010904//EN"
 "http://www.w3.org/TR/2001/REC-SVG-20010904/DTD/svg10.dtd">
<svg version="1.0" xmlns="http://www.w3.org/2000/svg"
 width="1000.000000pt" height="1000.000000pt" viewBox="0 0 1000.000000 1000.000000"
 preserveAspectRatio="xMidYMid meet">

<g transform="translate(0.000000,1000.000000) scale(0.100000,-0.100000)"
fill="#000000" stroke="none">
<path d="M369 9850 c-126 -4 -150 -8 -168 -24 -25 -22 -27 -44 -7 -72 13 -17
31 -20 148 -24 l133 -5 5 -60 c3 -33 13 -85 22 -115 73 -245 89 -787 33 -1100
-18 -100 -33 -270 -40 -460 -7 -167 -31 -412 -86 -850 -31 -255 -51 -407 -65
-505 -33 -241 -46 -462 -55 -995 -8 -403 -7 -618 2 -825 7 -154 15 -399 20
-545 8 -280 18 -413 38 -495 42 -173 51 -259 51 -510 0 -236 -17 -544 -40
-700 -5 -38 -17 -146 -25 -240 -9 -93 -25 -224 -35 -290 -11 -66 -24 -158 -30
-205 -6 -47 -18 -129 -26 -182 -17 -115 -19 -363 -3 -457 29 -178 54 -292 77
-356 14 -38 31 -90 38 -115 7 -25 29 -83 49 -130 20 -47 45 -110 57 -140 11
-30 31 -66 43 -79 23 -24 24 -24 100 -11 106 18 853 8 1010 -14 243 -34 433
-46 730 -46 218 -1 325 -5 390 -16 117 -19 378 -32 915 -44 239 -6 498 -15
575 -20 79 -5 692 -8 1398 -6 1219 2 1257 2 1257 -16 0 -20 42 -68 60 -68 20
0 60 49 60 73 0 29 20 37 97 37 29 0 128 7 220 16 142 14 223 15 523 8 495
-12 1064 -10 1115 5 22 7 67 16 100 21 106 16 298 48 360 61 33 6 85 15 115
19 115 16 229 42 258 60 25 15 32 27 36 62 18 150 27 263 32 408 3 91 13 208
22 260 13 76 16 174 16 480 1 212 7 617 15 900 14 519 12 860 -9 1970 -5 283
-14 556 -20 605 -29 254 -46 441 -69 765 -17 230 -31 366 -46 450 -8 41 -17
104 -21 140 -3 36 -10 81 -16 100 -5 19 -14 69 -18 110 -5 41 -14 122 -21 180
-9 81 -9 171 0 400 6 162 11 372 11 467 0 95 4 194 10 220 5 26 14 120 20 208
5 88 15 192 21 230 8 45 11 147 8 285 -7 409 -1 645 21 867 19 180 29 172
-220 193 -74 6 -169 19 -210 27 -120 24 -463 29 -623 9 -121 -16 -296 -17
-2067 -13 -1274 3 -1967 9 -2030 16 -52 5 -331 15 -620 20 -289 6 -646 15
-795 21 -148 5 -412 10 -585 11 -248 1 -322 4 -349 15 -30 13 -39 12 -76 -1
-46 -18 -192 -17 -490 3 -179 13 -1096 21 -1346 12z m1618 -136 l203 -6 0
-332 c0 -320 10 -471 40 -631 10 -51 24 -213 40 -457 5 -76 13 -154 19 -175 5
-21 12 -83 15 -138 4 -54 9 -109 12 -121 l5 -21 -513 -8 c-713 -11 -687 -10
-743 -23 -27 -6 -94 -15 -147 -21 -87 -9 -126 -18 -278 -66 -24 -8 -45 -13
-46 -12 -4 7 33 536 46 638 6 46 15 127 20 179 5 52 14 124 20 160 13 85 13
475 0 520 -6 19 -17 100 -26 180 -9 85 -26 176 -40 220 -13 41 -24 88 -24 104
l0 28 598 -6 c328 -3 688 -9 799 -12z m1493 -24 c107 -5 331 -9 498 -10 286 0
635 -18 784 -40 41 -6 465 -10 1087 -10 l1021 0 -6 -47 c-3 -27 -12 -84 -20
-128 -31 -175 -52 -649 -56 -1265 l-3 -455 -160 4 c-88 1 -288 7 -445 12 -354
12 -1054 27 -1058 24 -2 -1 8 -27 22 -58 l24 -55 113 -6 c63 -3 301 -8 529
-12 418 -6 761 -18 900 -32 l75 -7 7 -345 c16 -756 39 -1507 48 -1550 5 -25
14 -126 20 -225 6 -99 17 -220 25 -270 23 -145 64 -458 80 -610 19 -186 34
-300 46 -355 21 -92 39 -218 44 -315 7 -119 -3 -148 -53 -153 -30 -3 -32 -5
-32 -44 l0 -41 -582 7 c-353 4 -615 11 -663 18 -44 7 -156 12 -250 13 -166 0
-170 0 -173 -21 -5 -32 -36 -56 -69 -52 -21 2 -33 13 -48 40 l-20 38 -396 0
c-338 0 -401 -2 -427 -15 -28 -15 -34 -14 -61 0 -27 13 -94 15 -538 13 l-508
-3 0 -55 0 -55 1205 -6 c663 -3 1410 -11 1660 -17 250 -7 550 -13 665 -14
l210 -3 -2 -260 c-1 -143 -7 -336 -13 -430 -6 -93 -13 -467 -16 -830 -5 -695
-3 -750 39 -806 20 -28 28 -74 52 -299 14 -137 27 -216 38 -226 2 -3 15 12 27
33 21 36 22 45 16 153 -4 63 -11 144 -15 180 -45 350 -43 292 -38 1100 5 645
8 774 21 825 20 78 21 325 2 477 -33 257 -34 273 -15 293 26 27 3 463 -77
1435 -36 432 -77 1367 -90 2049 l-6 324 25 -7 c14 -3 114 -11 223 -16 108 -6
201 -13 206 -16 11 -7 287 -39 503 -58 88 -8 412 -20 720 -26 308 -6 580 -16
605 -21 25 -6 61 -21 80 -34 43 -29 96 -43 220 -59 l95 -12 -1 -64 c-1 -36 -5
-129 -9 -208 -6 -97 -4 -164 3 -210 7 -37 18 -119 26 -182 8 -63 24 -173 36
-245 32 -197 38 -254 64 -600 24 -308 31 -381 62 -655 9 -81 17 -350 24 -760
6 -349 15 -659 20 -689 13 -72 13 -188 0 -196 -6 -4 -52 0 -103 9 -50 8 -184
17 -297 20 -113 4 -251 9 -307 12 l-101 6 -4 -55 -3 -55 95 -10 c52 -6 190
-14 305 -18 116 -3 257 -12 315 -18 l105 -11 -2 -315 c0 -173 -6 -461 -13
-640 -6 -179 -13 -533 -14 -786 -2 -254 -6 -467 -10 -473 -4 -6 -11 -84 -17
-173 -5 -90 -11 -183 -14 -208 -3 -25 -10 -105 -17 -177 l-12 -133 -35 -5
c-38 -6 -97 -17 -196 -36 -33 -6 -112 -19 -175 -29 -63 -10 -160 -26 -215 -35
-55 -8 -107 -18 -115 -22 -63 -26 -606 -34 -905 -14 -206 14 -740 9 -795 -8
-19 -6 -80 -12 -135 -13 l-100 -3 3 30 c2 17 22 67 44 113 38 79 46 111 18 77
-14 -17 -75 -21 -85 -5 -20 32 -52 -20 -85 -135 l-26 -90 -350 -7 c-438 -9
-2283 -1 -2744 12 -190 5 -419 11 -510 13 -221 5 -484 22 -501 33 -8 5 -192
11 -409 15 -217 4 -404 9 -415 11 -52 13 -176 26 -505 50 -85 7 -323 12 -528
12 -204 1 -372 5 -372 9 0 5 -22 61 -48 125 -62 149 -117 320 -144 447 -18 83
-21 136 -22 315 -1 218 6 301 44 535 11 72 25 168 30 215 5 47 16 141 24 210
8 69 20 186 26 260 6 74 16 167 22 205 6 39 12 214 15 390 3 281 6 321 20 329
18 10 316 31 658 47 116 5 291 14 390 18 99 5 340 13 536 17 l356 7 12 -84 c6
-46 16 -127 22 -179 18 -161 27 -232 38 -310 6 -41 16 -212 21 -380 10 -329
18 -403 57 -580 42 -188 46 -215 73 -515 6 -66 20 -156 30 -200 10 -44 21
-118 25 -165 6 -87 40 -289 55 -325 12 -28 12 347 0 674 -8 204 -16 299 -31
375 -12 55 -25 121 -29 146 -5 25 -14 60 -19 79 -22 74 -40 289 -45 552 -4
207 -10 305 -25 390 -10 63 -24 168 -30 234 -12 130 -30 260 -38 282 -4 11 36
13 221 13 l227 0 -3 57 -3 58 -226 3 -226 2 -6 488 c-4 268 -12 559 -17 647
-6 88 -16 255 -23 372 -7 116 -16 215 -20 219 -4 4 -7 -4 -7 -17 0 -14 -9 -50
-20 -82 -11 -31 -20 -65 -20 -75 0 -11 -9 -48 -21 -83 -20 -62 -20 -71 -9
-334 6 -148 15 -342 21 -430 5 -88 9 -285 9 -437 l0 -277 -55 -6 c-31 -4 -115
-4 -188 0 -76 4 -185 2 -257 -4 -69 -6 -332 -18 -585 -26 -253 -9 -476 -20
-495 -25 -19 -4 -98 -11 -175 -15 -77 -3 -158 -8 -180 -11 l-41 -5 -18 98
c-55 291 -70 660 -67 1683 1 786 11 944 85 1450 14 95 26 198 26 227 0 29 4
72 10 95 8 38 27 175 46 339 5 52 8 56 29 51 12 -2 33 3 46 11 22 14 68 28
194 57 174 41 439 57 992 59 315 1 355 3 382 18 29 17 32 17 65 -1 24 -13 37
-28 42 -50 3 -17 14 -47 24 -66 10 -19 35 -84 55 -145 21 -60 41 -117 46 -125
11 -18 5 289 -6 338 l-7 32 818 0 c771 0 1003 -5 1474 -31 107 -6 208 -12 224
-13 26 -1 31 4 39 34 5 19 17 44 28 56 l20 21 -78 7 c-43 3 -224 11 -403 16
-179 6 -347 15 -373 20 -29 6 -387 10 -896 10 l-849 0 -11 48 c-10 45 -20 141
-41 426 -6 70 -12 131 -14 135 -3 3 -12 99 -21 211 -9 113 -24 234 -32 270
-11 49 -16 154 -20 429 l-5 364 493 -7 c272 -4 582 -11 689 -16z m5780 -38
c131 -23 260 -41 330 -47 l75 -6 -8 -87 c-5 -48 -10 -319 -11 -602 -1 -366 -5
-525 -13 -550 -19 -55 -43 -432 -43 -672 l0 -220 -37 5 c-124 18 -181 30 -208
44 -110 59 -99 56 -299 65 -105 5 -261 11 -346 14 -728 20 -893 26 -950 35
-185 29 -471 58 -575 59 -44 0 -120 7 -170 15 -49 8 -93 15 -97 15 -12 0 -9
825 2 1045 25 476 53 770 80 839 l9 25 858 4 c735 4 868 6 928 20 77 17 371
17 475 -1z"/>
<path d="M2343 6670 c2 -223 9 -468 15 -545 6 -77 18 -229 26 -339 8 -109 18
-202 23 -207 6 -6 16 20 27 68 9 43 24 107 34 143 20 78 21 151 4 377 -6 95
-12 257 -12 360 0 165 -3 200 -25 289 -24 99 -69 229 -87 249 -5 6 -7 -157 -5
-395z"/>
<path d="M7190 3689 c0 -7 9 -32 21 -56 18 -37 25 -43 51 -43 17 0 58 -5 92
-10 33 -6 228 -15 431 -20 224 -6 411 -16 475 -25 58 -8 209 -21 335 -29 127
-8 238 -18 248 -22 16 -6 17 -2 11 47 -3 30 -12 60 -19 67 -9 10 -79 18 -241
27 -276 17 -358 24 -398 37 -17 5 -173 13 -346 18 -173 5 -393 12 -487 16
-139 5 -173 4 -173 -7z"/>
<path d="M2677 670 c-18 -75 -27 -201 -17 -220 24 -45 110 -17 110 35 0 12
-20 65 -44 116 -37 80 -45 90 -49 69z"/>
</g>
</svg>
